<?xml version="1.0" encoding="UTF-8" standalone="no"?>
<!-- Created with Inkscape (http://www.inkscape.org/) -->

<svg
   width="96"
   height="96"
   viewBox="0 0 25.399999 25.4"
   version="1.1"
   id="svg5"
   inkscape:version="1.2.2 (b0a8486541, 2022-12-01)"
   sodipodi:docname="drawing.svg"
   inkscape:export-filename="../src/logo.png"
   inkscape:export-xdpi="96"
   inkscape:export-ydpi="96"
   xmlns:inkscape="http://www.inkscape.org/namespaces/inkscape"
   xmlns:sodipodi="http://sodipodi.sourceforge.net/DTD/sodipodi-0.dtd"
   xmlns="http://www.w3.org/2000/svg"
   xmlns:svg="http://www.w3.org/2000/svg">
  <sodipodi:namedview
     id="namedview7"
     pagecolor="#ffffff"
     bordercolor="#000000"
     borderopacity="0.25"
     inkscape:showpageshadow="2"
     inkscape:pageopacity="0.0"
     inkscape:pagecheckerboard="0"
     inkscape:deskcolor="#d1d1d1"
     inkscape:document-units="mm"
     showgrid="false"
     inkscape:lockguides="false"
     showborder="false"
     inkscape:zoom="6.7736083"
     inkscape:cx="47.832704"
     inkscape:cy="54.328503"
     inkscape:window-width="3840"
     inkscape:window-height="2091"
     inkscape:window-x="0"
     inkscape:window-y="0"
     inkscape:window-maximized="1"
     inkscape:current-layer="layer1" />
  <defs
     id="defs2">
    <filter
       style="color-interpolation-filters:sRGB"
       id="filter276"
       inkscape:label="filter0" />
    <style
       id="style124">.cls-1{fill:#10a64a;}.cls-1,.cls-2,.cls-3,.cls-4{fill-rule:evenodd;}.cls-2{fill:#0bb34b;}.cls-3{fill:#fff;}.cls-4{fill:#303030;}</style>
  </defs>
  <g
     inkscape:label="Layer 1"
     inkscape:groupmode="layer"
     id="layer1">
    <g
       id="g205"
       transform="matrix(1.0681953,0,0,1.0919009,-34.395929,-4.3206581)">
      <path
         class="cls-1"
         d="m 44.083053,4.3403698 a 2.6900683,2.5922254 0 0 1 1.61787,0.4889251 c 0.631831,0.3874501 1.340248,1.1494352 2.222897,1.6346703 1.244515,0.6826501 3.522936,-0.256455 4.690866,1.4206503 0.683527,0.9796951 0.714161,1.7453703 0.765856,2.5036655 0.05553,0.817335 0.204867,1.570095 1.072198,2.677095 1.437894,1.832085 1.736578,3.05163 0.995613,4.322835 -0.503551,0.865306 -1.56809,1.346851 -1.813164,1.896661 -0.524611,1.167885 0.05552,2.04795 -0.662465,3.407716 a 3.764181,3.6272706 0 0 1 -2.297567,1.883745 c -0.861588,0.26937 -1.723176,-0.11808 -2.41819,0.160515 -1.213881,0.492615 -2.106103,1.63467 -3.074911,1.922491 a 3.7278029,3.5922156 0 0 1 -2.22864,0 c -0.957319,-0.287821 -1.86103,-1.429876 -3.074911,-1.922491 -0.691185,-0.278595 -1.556602,0.108855 -2.41819,-0.160515 a 3.764181,3.6272706 0 0 1 -2.268847,-1.883745 c -0.72182,-1.359766 -0.141684,-2.239831 -0.666295,-3.407716 -0.245074,-0.5535 -1.309613,-1.031355 -1.822737,-1.896661 -0.740965,-1.271205 -0.440366,-2.49075 0.997527,-4.322835 0.867332,-1.107 1.016674,-1.85976 1.072199,-2.677095 0.04978,-0.7582952 0.08233,-1.5239704 0.765855,-2.5036655 1.173674,-1.6771053 3.461668,-0.7380002 4.696611,-1.4188053 0.892222,-0.4852351 1.598724,-1.2472202 2.23247,-1.6346703 a 2.6900683,2.5922254 0 0 1 1.615955,-0.4907701 z"
         id="path130"
         style="stroke-width:0.187949" />
      <path
         class="cls-2"
         d="m 53.572006,11.504506 a 5.1695264,4.9815009 0 0 0 0.878819,1.56087 c 1.437895,1.832085 1.736578,3.05163 0.995613,4.322835 -0.50355,0.865306 -1.56809,1.346851 -1.813163,1.896661 -0.524612,1.167885 0.05552,2.04795 -0.662466,3.407716 a 3.7680103,3.6309607 0 0 1 -2.297567,1.883745 c -0.861588,0.267525 -1.723176,-0.11808 -2.418189,0.160515 -1.213882,0.492615 -2.106104,1.632825 -3.074912,1.922491 a 3.7278029,3.5922156 0 0 1 -2.228639,0 c -0.95732,-0.289666 -1.86103,-1.429876 -3.074912,-1.922491 -0.691184,-0.278595 -1.556602,0.10701 -2.418189,-0.160515 A 3.764181,3.6272706 0 0 1 35.191468,22.692588 3.4750705,3.3486756 0 0 1 34.80854,21.417692 Z"
         id="path132"
         style="stroke-width:0.187949" />
      <path
         class="cls-3"
         d="M 44.04859,9.0451207 A 6.9635434,6.7102662 0 1 1 37.085046,15.755387 6.9635434,6.7102662 0 0 1 44.04859,9.0451207 Z"
         id="path134"
         style="stroke-width:0.187949" />
      <path
         class="cls-4"
         d="m 42.16267,14.415916 1.363223,1.237995 2.734105,-2.67894 c 0.269964,-0.263835 0.440367,-0.47601 0.765856,-0.145755 l 1.0856,1.068255 c 0.354209,0.33948 0.335062,0.536895 0,0.854235 l -3.969047,3.763801 c -0.706502,0.66789 -0.574392,0.710325 -1.301955,0.02214 l -2.502433,-2.389276 a 0.3159155,0.30442505 0 0 1 0.02297,-0.477855 l 1.263662,-1.256445 c 0.191464,-0.1845 0.342721,-0.1845 0.538014,0 z"
         id="path136"
         style="stroke-width:0.187949" />
    </g>
    <title
       id="title128">approve</title>
  </g>
</svg>
