<?xml version="1.0" encoding="UTF-8" standalone="no"?>
<!-- Created with Inkscape (http://www.inkscape.org/) -->

<svg
   width="96"
   height="96"
   viewBox="0 0 25.399999 25.4"
   version="1.1"
   id="svg5"
   inkscape:version="1.2.2 (b0a8486541, 2022-12-01)"
   sodipodi:docname="drawing.svg"
   inkscape:export-filename="drawing.png"
   inkscape:export-xdpi="16"
   inkscape:export-ydpi="16"
   xmlns:inkscape="http://www.inkscape.org/namespaces/inkscape"
   xmlns:sodipodi="http://sodipodi.sourceforge.net/DTD/sodipodi-0.dtd"
   xmlns="http://www.w3.org/2000/svg"
   xmlns:svg="http://www.w3.org/2000/svg">
  <sodipodi:namedview
     id="namedview7"
     pagecolor="#ffffff"
     bordercolor="#000000"
     borderopacity="0.25"
     inkscape:showpageshadow="2"
     inkscape:pageopacity="0.0"
     inkscape:pagecheckerboard="0"
     inkscape:deskcolor="#d1d1d1"
     inkscape:document-units="mm"
     showgrid="false"
     inkscape:lockguides="false"
     showborder="false"
     inkscape:zoom="6.7736083"
     inkscape:cx="47.832704"
     inkscape:cy="54.180872"
     inkscape:window-width="1958"
     inkscape:window-height="1577"
     inkscape:window-x="26"
     inkscape:window-y="23"
     inkscape:window-maximized="0"
     inkscape:current-layer="layer1" />
  <defs
     id="defs2">
    <filter
       style="color-interpolation-filters:sRGB"
       id="filter276"
       inkscape:label="filter0" />
  </defs>
  <g
     inkscape:label="Layer 1"
     inkscape:groupmode="layer"
     id="layer1">
    <g
       id="g589"
       transform="matrix(0.18753752,0,0,0.18753752,29.371777,37.395297)">
      <path
         fill="#1470b8"
         d="m -88.656265,-183.32049 c 28.487687,0 51.583165,23.09548 51.583165,51.58582 0,28.48768 -23.095478,51.583165 -51.583165,51.583165 -28.490335,0 -51.585815,-23.095485 -51.585815,-51.583165 0,-28.49034 23.09548,-51.58582 51.585815,-51.58582 z"
         id="path563"
         style="stroke-width:0.264583" />
      <path
         fill="#bbdefb"
         fill-rule="nonzero"
         d="m -91.24389,-159.8493 v -14.46741 c -2.772833,2.44475 -5.310188,4.87627 -7.617354,7.2972 -2.283356,2.39713 -4.344456,4.78632 -6.180666,7.17021 z m 39.42556,56.31392 h -13.297956 c -4.558771,6.569603 -10.297583,12.385145 -16.364479,17.568332 l 0.523875,-0.08202 c 11.395604,-1.852084 22.156208,-8.292042 29.13856,-17.486312 z m -43.99756,17.563041 c -6.0616,-5.177896 -11.80571,-10.998729 -16.35654,-17.563041 h -13.26886 c 7.01675,9.239249 17.69534,15.615707 29.133275,17.483666 z M -125.4942,-159.8493 h 14.08641 c 2.11932,-3.03212 4.56936,-6.07483 7.35277,-9.12548 2.58498,-2.83368 5.461005,-5.67796 8.630713,-8.53016 l -0.748771,0.11112 c -11.443232,1.78065 -22.304372,8.29469 -29.321122,17.54452 z m 43.645664,-17.61596 c 5.881688,5.2758 11.424708,11.11515 15.935854,17.61596 h 14.065252 c -7.286627,-9.58321 -18.129252,-15.83266 -30.001106,-17.61596 z m -4.228042,3.14855 v 14.46741 h 13.798021 c -1.836208,-2.38389 -3.894666,-4.77308 -6.178021,-7.17021 -2.307166,-2.42093 -4.847166,-4.85245 -7.62,-7.2972 z m 0,70.78133 v 14.681728 c 5.289021,-4.392083 10.313459,-9.260416 14.557375,-14.681728 z m -5.167312,14.684374 v -14.684374 h -14.56002 c 4.22275,5.434541 9.263062,10.30552 14.56002,14.684374 z"
         id="path565"
         style="stroke-width:0.264583" />
      <path
         fill="#1470b8"
         fill-rule="nonzero"
         d="m -145.75335,-159.39951 h 114.18358 c 5.84465,0 10.64155,4.7969 10.64155,10.64155 v 34.13125 c 0,5.82877 -4.81277,10.64154 -10.64155,10.64154 h -114.18358 c -5.85523,0 -10.64154,-4.78632 -10.64154,-10.64154 v -34.13125 c 0,-5.86053 4.78102,-10.64155 10.64154,-10.64155 z"
         id="path567"
         style="stroke-width:0.264583" />
      <path
         fill="#ffffff"
         d="m -145.75335,-154.66082 h 114.18358 c 3.24644,0 5.90286,2.667 5.90286,5.90286 v 34.13125 c 0,3.23585 -2.667,5.90285 -5.90286,5.90285 h -114.18358 c -3.23585,0 -5.90285,-2.65642 -5.90285,-5.90285 v -34.13125 c 0,-3.24644 2.65906,-5.90286 5.90285,-5.90286 z"
         id="path569"
         style="stroke-width:0.264583" />
      <path
         fill="#1f3647"
         fill-rule="nonzero"
         d="m -117.40854,-144.0378 h 8.255 l -3.8682,24.68827 h -10.31082 l -1.81768,-9.08579 h -0.47361 l -1.778,9.08579 h -10.30817 l -3.87085,-24.68827 h 8.255 l 1.85473,13.78744 h 0.23812 l 2.84428,-13.78744 h 6.04308 l 2.80458,13.78744 h 0.23813 z m 26.328692,15.367 h -7.900459 v 3.42106 h 9.678459 v 5.90021 h -17.578922 v -24.68827 h 17.380484 l -0.986896,5.90286 h -8.493125 v 3.73591 h 7.900459 z m 5.42925,9.32127 v -24.68827 h 12.800541 c 2.368021,0 4.061354,0.46302 5.074709,1.38377 1.013354,0.92075 1.521354,2.26484 1.521354,4.02961 0,1.76477 -0.322792,3.12473 -0.968375,4.08781 -0.645584,0.96044 -1.508125,1.58485 -2.587625,1.8759 v 0.23812 c 3.185583,0.55298 4.781021,2.72521 4.781021,6.51669 0,1.97644 -0.526521,3.56129 -1.579563,4.75985 -1.055687,1.19856 -2.674937,1.79652 -4.860396,1.79652 z m 10.982854,-9.83456 h -3.500438 v 4.0296 h 3.46075 c 1.105959,0 1.658938,-0.67204 1.658938,-2.01612 0,-1.34144 -0.542396,-2.01348 -1.61925,-2.01348 z m -0.592667,-9.44033 h -2.907771 v 3.67241 h 2.868084 c 1.000125,0 1.500187,-0.61118 1.500187,-1.8362 0,-1.22503 -0.486833,-1.83621 -1.4605,-1.83621 z m 31.027691,3.27818 v -2.98714 c -0.79111,-0.13229 -2.06905,-0.19579 -3.83117,-0.19579 -1.76477,0 -3.96346,0.27516 -6.59871,0.82814 l -1.02658,-5.4266 c 3.21204,-1.00277 6.32089,-1.50283 9.32391,-1.50283 2.57969,0 4.4503,0.15875 5.60917,0.4736 1.15888,0.3175 2.01348,0.6985 2.56646,1.14565 1.21179,1.02922 1.81769,2.58233 1.81769,4.66195 0,2.63261 -1.09273,4.52967 -3.27819,5.68855 v 0.19843 c 2.60615,1.0795 3.91054,3.04007 3.91054,5.88434 0,1.397 -0.21696,2.58762 -0.65087,3.57452 -0.43657,0.98689 -0.98161,1.75154 -1.64042,2.29129 -0.65881,0.53975 -1.52665,0.96837 -2.60879,1.28323 -1.60602,0.44979 -3.86292,0.67204 -6.77334,0.67204 -2.91041,0 -5.82612,-0.34131 -8.74977,-1.02658 l 1.10596,-6.09865 c 2.50296,0.6059 4.62227,0.91017 6.36059,0.91017 1.73831,0 3.22527,-0.0794 4.46352,-0.23813 v -2.94746 l -6.7945,-0.67204 v -5.72823 z"
         id="path571"
         style="stroke-width:0.264583" />
    </g>
  </g>
</svg>
